<?xml version="1.0" standalone="no"?>
<!DOCTYPE svg PUBLIC "-//W3C//DTD SVG 20010904//EN"
 "http://www.w3.org/TR/2001/REC-SVG-20010904/DTD/svg10.dtd">
<svg version="1.0" xmlns="http://www.w3.org/2000/svg"
 width="1563.000000pt" height="1563.000000pt" viewBox="0 0 1563.000000 1563.000000"
 preserveAspectRatio="xMidYMid meet">

<g transform="translate(0.000000,1563.000000) scale(0.100000,-0.100000)"
fill="#000000" stroke="none">
<path d="M10710 13879 c-285 -123 -524 -310 -685 -534 -115 -160 -177 -304
-215 -502 -10 -52 -20 -97 -23 -100 -3 -2 -49 12 -104 32 -407 153 -1004 325
-1493 429 -381 81 -874 154 -1197 177 -192 13 -698 7 -873 -11 -896 -90 -1634
-344 -2335 -804 -645 -424 -1139 -938 -1505 -1566 -326 -561 -529 -1164 -580
-1725 -13 -141 -13 -507 0 -655 80 -911 550 -1888 1268 -2632 366 -379 887
-760 1377 -1008 226 -115 318 -154 526 -225 356 -121 778 -205 1234 -244 66
-6 145 -13 175 -17 30 -4 967 -8 2083 -11 l2027 -4 0 44 0 45 -137 4 c-107 4
-151 9 -195 25 -162 59 -242 182 -285 436 -15 90 -17 218 -20 1122 -3 654 -1
1072 6 1165 16 223 61 369 135 443 73 73 205 119 377 132 52 4 100 12 107 17
15 13 16 50 0 66 -9 9 -273 12 -1124 12 l-1113 0 -15 -22 c-13 -19 -14 -25 -2
-43 11 -17 28 -21 113 -26 124 -8 222 -37 299 -88 91 -61 140 -142 176 -289
21 -85 22 -112 25 -1056 5 -1170 -1 -1281 -75 -1441 -59 -124 -134 -177 -315
-220 -202 -48 -436 -69 -952 -86 -587 -19 -881 -1 -1440 87 -723 115 -1335
363 -1785 725 -212 170 -488 459 -672 704 -306 409 -483 771 -596 1221 -181
718 -187 1680 -15 2458 134 611 377 1170 721 1654 242 343 560 673 878 910
491 368 1073 592 1719 662 188 21 584 24 770 6 443 -41 915 -162 1490 -381 83
-31 260 -94 395 -140 290 -98 661 -252 660 -274 0 -3 -22 -22 -47 -41 -162
-121 -307 -304 -395 -497 -101 -224 -147 -475 -134 -743 4 -74 11 -139 16
-144 16 -16 42 5 150 119 171 181 315 377 382 521 30 65 31 65 18 142 -17 103
-15 310 4 397 14 68 38 144 71 235 22 60 13 152 -23 223 l-27 53 75 0 c95 -1
157 27 200 88 40 59 177 186 259 241 81 54 167 93 271 126 63 20 84 32 130 79
95 95 226 341 329 615 45 122 50 155 24 155 -10 0 -61 -19 -113 -41z"/>
<path d="M11205 13519 c-76 -11 -215 -54 -280 -86 -136 -69 -334 -247 -319
-288 4 -9 44 -12 172 -9 92 1 199 -2 237 -8 175 -26 220 -9 286 104 60 103
129 245 129 267 0 10 -7 22 -16 25 -21 8 -136 5 -209 -5z"/>
<path d="M10565 13029 c-96 -14 -207 -45 -288 -79 -103 -43 -243 -137 -307
-207 l-53 -58 32 -3 c18 -2 47 2 64 8 47 18 263 25 340 11 233 -40 401 -120
613 -291 101 -82 120 -85 236 -44 230 83 417 225 559 427 70 100 93 145 80
161 -8 9 -60 15 -169 20 -86 4 -254 19 -372 32 -236 28 -628 40 -735 23z"/>
<path d="M10045 12605 c-90 -20 -174 -54 -186 -76 -8 -16 -5 -22 21 -37 198
-109 354 -220 474 -335 85 -82 79 -81 -126 13 -153 70 -287 146 -375 213 -76
57 -88 49 -79 -54 13 -156 51 -268 131 -388 217 -327 738 -521 1492 -557 140
-6 153 -5 159 11 8 20 -11 62 -99 220 -280 506 -572 813 -892 936 -166 64
-375 86 -520 54z"/>
<path d="M11430 12367 c-30 -18 -102 -51 -160 -74 -79 -32 -105 -47 -104 -60
0 -10 44 -75 98 -145 95 -125 98 -128 136 -128 91 0 291 91 359 164 36 38 22
64 -79 157 -147 135 -159 139 -250 86z"/>
<path d="M9656 12248 c-56 -86 -82 -355 -52 -528 34 -196 119 -385 300 -672
57 -90 138 -219 182 -288 43 -69 102 -167 129 -218 68 -124 75 -123 159 23
108 188 158 371 159 580 0 149 -14 233 -48 273 -15 18 -66 46 -147 80 -226 95
-404 233 -517 402 -61 92 -118 231 -128 313 -7 56 -17 66 -37 35z"/>
<path d="M9542 11457 c-19 -22 -62 -144 -77 -219 -37 -175 -25 -351 36 -508
51 -132 84 -175 114 -152 25 18 128 157 175 236 69 115 68 134 -25 282 -38 60
-93 160 -122 224 -30 63 -57 121 -62 129 -11 21 -26 24 -39 8z"/>
<path d="M10615 11381 c-3 -7 -1 -53 5 -103 7 -50 10 -139 9 -197 l-4 -106 65
-31 c36 -18 109 -47 162 -65 77 -27 102 -32 115 -23 63 39 59 393 -4 455 -11
11 -67 28 -148 45 -172 36 -191 38 -200 25z"/>
<path d="M5110 9911 c0 -46 9 -51 91 -51 79 0 202 -26 266 -57 100 -47 144
-128 180 -333 15 -86 17 -296 20 -2262 2 -1193 4 -2168 6 -2168 1 0 58 -11
127 -25 184 -35 683 -104 763 -105 16 0 17 123 17 2435 l0 2435 753 0 c889 0
1190 -13 1612 -71 933 -126 1676 -404 2260 -843 333 -250 676 -618 925 -994
299 -450 490 -965 555 -1495 102 -835 -73 -1674 -502 -2400 -293 -497 -577
-816 -942 -1058 -638 -425 -1566 -632 -2703 -605 -897 21 -1381 143 -1665 419
-146 141 -214 289 -265 572 -19 107 -22 167 -25 557 l-5 437 -61 5 c-34 3
-145 10 -247 16 -185 11 -402 32 -515 50 -33 6 -66 10 -72 10 -10 0 -13 -149
-13 -712 0 -415 -4 -761 -11 -828 -31 -349 -84 -500 -205 -586 -63 -45 -127
-63 -246 -71 l-98 -6 0 -34 0 -34 2218 4 c2167 3 2223 4 2472 25 652 55 1009
127 1369 278 536 225 1097 683 1518 1239 156 206 343 518 464 770 70 147 173
408 228 575 269 823 263 1780 -15 2548 -240 661 -656 1210 -1219 1609 -512
363 -1132 591 -1895 697 -608 85 -961 95 -3357 96 l-1783 0 0 -39z"/>
</g>
</svg>
